<svg id="Layer_1" data-name="Layer 1" xmlns="http://www.w3.org/2000/svg" viewBox="0 0 397.59 364.58"><defs><style>.cls-1{fill:#fff;}</style></defs><title>scan_use</title><path class="cls-1" d="M885-328.47v-140l-6,6h333.8c4.36,0,9.29.65,13.61,0a3.87,3.87,0,0,1,.59,0l-6-6v140c0,7.72,12,7.73,12,0v-140a6.09,6.09,0,0,0-6-6H921.88c-14,0-28.27-.65-42.3,0-.2,0-.39,0-.59,0a6.09,6.09,0,0,0-6,6v140c0,7.72,12,7.73,12,0Z" transform="translate(-853.86 474.76)"/><path class="cls-1" d="M873-267.14v150.67a6.09,6.09,0,0,0,6,6H1184.1c14.05,0,28.27.65,42.3,0,.2,0,.39,0,.59,0a6.09,6.09,0,0,0,6-6V-267.14c0-7.72-12-7.73-12,0v150.67l6-6H893.19c-4.36,0-9.29-.65-13.61,0a3.87,3.87,0,0,1-.59,0l6,6V-267.14c0-7.72-12-7.73-12,0Z" transform="translate(-853.86 474.76)"/><path class="cls-1" d="M859.66-290.47h338.43c15.58,0,31.34.71,46.9,0h.67c7.72,0,7.73-12,0-12H907.22c-15.57,0-31.33-.71-46.9,0-.22,0-.44,0-.66,0-7.72,0-7.74,12,0,12Z" transform="translate(-853.86 474.76)"/></svg>