<svg id="Layer_1" data-name="Layer 1" xmlns="http://www.w3.org/2000/svg" viewBox="0 0 409.18 376.47"><defs><style>.cls-1{fill:#fff;}</style></defs><title>scan_icon</title><path class="cls-1" d="M891-328.47v-140l-12,12H1184.1c14,0,28.37,1.05,42.3,0a5.81,5.81,0,0,1,.59,0l-12-12v140c0,15.44,24,15.47,24,0v-140a12.17,12.17,0,0,0-12-12H921.88c-14.07,0-28.24-.53-42.3,0-.2,0-.39,0-.59,0a12.17,12.17,0,0,0-12,12v140c0,15.44,24,15.47,24,0Z" transform="translate(-848.07 480.7)"/><path class="cls-1" d="M867-267.14v150.67a12.17,12.17,0,0,0,12,12H1184.1c14.07,0,28.24.52,42.3,0,.2,0,.39,0,.59,0a12.17,12.17,0,0,0,12-12V-267.14c0-15.44-24-15.47-24,0v150.67l12-12H921.88c-14,0-28.37-1.05-42.3,0H879l12,12V-267.14c0-15.44-24-15.47-24,0Z" transform="translate(-848.07 480.7)"/><path class="cls-1" d="M859.66-284.47h338.43c15.59,0,31.32.59,46.9,0h.67c15.44,0,15.47-24,0-24H907.22c-15.59,0-31.31-.59-46.9,0-.22,0-.44,0-.66,0-15.45,0-15.47,24,0,24Z" transform="translate(-848.07 480.7)"/></svg>