<svg id="Layer_1" data-name="Layer 1" xmlns="http://www.w3.org/2000/svg" viewBox="0 0 609.84 761.05"><defs><style>.cls-1{fill:#d9a43b;}.cls-2{fill:#9e772b;}.cls-3{fill:#ffd487;}.cls-4{fill:#ffdb9c;}.cls-5{fill:#edc57e;}.cls-6{fill:#403012;}.cls-7{fill:#bb0400;}.cls-8{fill:#a60400;}</style></defs><title>scripture</title><polygon class="cls-1" points="0 645.11 0 510.12 76.5 510.12 76.5 421.63 200.99 421.63 200.99 499.62 271.49 499.62 271.49 681.11 179.99 681.11 179.99 760.61 49.5 760.61 49.5 645.11 0 645.11"/><polygon class="cls-2" points="161.74 469.61 161.74 538.12 222.06 538.12 222.06 646.51 161.74 646.51 161.74 723.19 57.44 723.19 57.44 640.37 36.99 640.37 36.99 552.44 124.93 552.44 124.93 469.61 161.74 469.61"/><polygon class="cls-3" points="200.99 421.63 520.66 99.46 534.48 85.64 493.48 85.64 412.48 85.64 76.5 421.63 200.99 421.63"/><polygon class="cls-4" points="200.99 499.62 534.48 166.13 534.48 85.64 199.74 420.38 200.99 499.62"/><path class="cls-3" d="M617.34,451.59,954.07,114.86H880.33L761.57,233.62c-72.12,72.12-142.61,145.85-214.73,218C570.88,452.13,593.3,451.05,617.34,451.59Z" transform="translate(-345.79 48.19)"/><path class="cls-3" d="M954,114.69" transform="translate(-345.79 48.19)"/><polygon class="cls-4" points="271.49 681.11 609.84 340.75 608.28 163.05 271.49 499.62 271.49 681.11"/><polygon class="cls-5" points="0 510.12 76.5 433.36 76.76 510.12 0 510.12"/><polygon class="cls-3" points="179.99 761.05 259.93 681.11 179.99 681.11 179.99 761.05"/><polygon class="cls-6" points="148.29 535.03 148.29 574.23 182.88 574.23 182.88 636.24 148.29 636.24 148.29 680.11 88.49 680.11 88.49 632.73 76.76 632.73 76.76 582.41 127.18 582.41 127.18 535.03 148.29 535.03"/><polygon class="cls-7" points="256.62 241.51 384.43 241.51 384.43 319.5 454.92 319.5 454.92 496.59 454.92 499.94 484.24 470.63 484.24 295.95 484.24 290.81 404.74 290.81 404.74 216.51 281.61 216.51 259.6 238.52 256.62 241.51"/><polygon class="cls-8" points="166.88 226.63 166.88 331.24 271.49 226.63 166.88 226.63"/><polygon class="cls-8" points="251.4 246.72 251.08 143.78 355.13 142.99 251.4 246.72"/><polygon class="cls-8" points="280.88 143.78 280.88 0 315.6 34.72 348.88 1.45 348.88 143.78 280.88 143.78"/><polygon class="cls-8" points="166.88 312.94 23.1 312.94 57.83 278.22 24.55 244.94 166.88 244.94 166.88 312.94"/><polygon class="cls-8" points="454.92 496.59 454.92 499.94 451.59 499.94 454.92 496.59"/></svg>