<svg id="Layer_1" data-name="Layer 1" xmlns="http://www.w3.org/2000/svg" viewBox="0 0 556.97 571.34"><defs><style>.cls-1{fill:#fff;stroke:#0071bc;stroke-width:11px;}.cls-1,.cls-3,.cls-4{stroke-miterlimit:10;}.cls-2,.cls-3,.cls-4{fill:#0071bc;}.cls-3,.cls-4{stroke:#f2f2f2;}.cls-3{stroke-width:5px;}.cls-4{stroke-width:7px;}</style></defs><title>Untitled-12</title><circle class="cls-1" cx="278.49" cy="278.49" r="272.99"/><ellipse class="cls-2" cx="278.49" cy="277.74" rx="258.74" ry="263.24"/><path class="cls-3" d="M936.7,329.11c.63.79,1.21,1.65,1.9,2.37q20.26,21.13,40.56,42.22a20,20,0,0,0,2.84,2l-16.38,16.92,17.12,17.29-16.63,17.25L982,443.52l-14.2,14.75c5.26,5.89,10.2,11.4,15.29,17.09l-15.64,16.19,15.23,15.71-16.82,17.41,17.6,18.08c-4.44,4.6-8.5,8.93-12.7,13.1-1.6,1.58-1.58,2.61,0,4.18,3.69,3.63,7.1,7.58,10.85,11.14,2.09,2,1.78,3.21-.09,5.06-4.55,4.5-8.92,9.19-13.33,13.75l17.18,17.82-17.6,17.4,15.84,16c.45-.42,1.2-1.05,1.89-1.76,4.32-4.48,8.69-8.9,12.89-13.5,1.56-1.7,2.49-1.55,4,.07,4.6,5,9.35,9.81,14,14.67l15.42-16.19,32.39,33.71c-10.45,10.89-21.26,22.13-32.09,33.4l-17-17.76-30.3,31.82-15-15.86-15.65,17.9c3.28,3.41,7.41,7.89,11.76,12.12,2,2,2.15,3.22.07,5.28-4.81,4.76-9.38,9.8-14.5,15.21l18,17.84-15.51,16L983.51,805,937.36,853l-46.75-48.68,31.58-32.69-16-15.4,15.05-16.82L905.27,723l15.19-15.32L905.7,691.33l-15.39,16.11c-11.09-11.58-21.7-22.68-32.9-34.37L843.8,689.54l-32.22-33.81,29.92-31.16,14.32,15.86,17-18.18,16.39,17.8L905.56,623l-17-16.53,16.1-16.09-16.31-15.55,15.6-16.15-16-16.3,17-17.57L889.37,508,905,491.14l-17-17.58,14.37-14.73-15-15.54c5.07-5.26,9.69-10.07,14.32-14.89,2.49-2.59,2.49-2.91-.05-5.54l-13.28-13.71,16.07-16.35-15.05-15.1c1.35-1.51,2-2.28,2.68-3Q913,353,933.81,331.24c.64-.66,1.19-1.42,1.78-2.13Z" transform="translate(-657.66 -308.27)"/><rect class="cls-4" x="24.38" y="469.84" width="508" height="98" rx="49" ry="49"/></svg>