<svg id="Layer_1" data-name="Layer 1" xmlns="http://www.w3.org/2000/svg" viewBox="0 0 911 906.01"><defs><style>.cls-1{fill:#fefefe;}.cls-2{fill:#009cf5;}.cls-3{fill:#bee5fc;}.cls-4{fill:#1fa8f6;}</style></defs><title>sword</title><path class="cls-1" d="M628,76c.17-.33.32-.94.5-1,1.33-.08,2.67,0,4,0H1539q0,450.75,0,901.5a21.92,21.92,0,0,1-1,4.5c-.14-2-.41-4-.41-5.93q0-78,0-156V813h-6.12q-44.73,0-89.47,0a36.31,36.31,0,0,0-6.78.89c-4.91,1-6.75-.47-6.76-5.6q0-22,0-44v-6h-63V697.94h-53.67V639.6h53.8V530h62.55V413.45h-116V470h-58.9v60.81c-17.15,0-33.63-.17-50.11.12-4.1.08-5.18-1.06-5.14-5,.16-16.67.07-33.33.07-50V470.1h-61.45V413.16h-5.94c-14.5,0-29-.11-43.49.07-3.94,0-5.24-1.27-5.19-5.19.18-13.83.07-27.66.07-41.49v-5.61h-62.3V301h-54V243.57H909V191.72H853.05l-.77-.77v-57.9H790.67V76.16c-19.53,0-38.35,0-57.18,0Z" transform="translate(-628 -74.99)"/><path class="cls-1" d="M1367,981H628V242c15.33-.05,30.66-.05,46-.19,4,0,5.58,1.34,5.52,5.57-.21,15.67-.08,31.33-.08,47v5.78h6.06c15.17,0,30.34.09,45.5-.06,4.73,0,6.55,1.88,6.49,6.55-.15,12.67-.05,25.33-.05,38V360h5.38c14.33,0,28.67.14,43-.09,4.44-.07,5.84,1.43,5.71,5.79-.27,9-.08,18-.08,27V412h55.42c6.08,0,6.55.43,6.57,6.48,0,14.67,0,29.34,0,44,0,2.09.29,4.17.5,7.1H910.4v60.08h56.32v55.43h53.57v54.38h61.87v51.16c0,7.64,0,7.64-7.83,7.36-.33,0-.66,0-1,0-17.38-.05-34.79-.7-53.17,1.48v59.2H966.5v107h114.86V811.94h116.72V757.55h55.81v54.76h58.73v54.43h54v5.83q0,51.26,0,102.5C1366.59,977.05,1366.86,979,1367,981Z" transform="translate(-628 -74.99)"/><path class="cls-2" d="M1367,981c-.14-2-.41-4-.41-5.93q0-51.26,0-102.5v-5.83h-54V812.31h-58.73V757.55h-55.81v54.39H1081.36v53.69H966.5v-107h53.67v-59.2c18.38-2.18,35.79-1.53,53.17-1.48.33,0,.66,0,1,0,7.82.28,7.83.28,7.83-7.36V639.47h-61.87V585.09H966.72V529.66H910.4V469.58H854c-.21-2.93-.5-5-.5-7.1,0-14.66,0-29.33,0-44,0-6.05-.49-6.48-6.57-6.48H791.43V392.69c0-9-.19-18,.08-27,.13-4.36-1.27-5.86-5.71-5.79-14.32.23-28.66.09-43,.09h-5.38V344.65c0-12.67-.1-25.33.05-38,.06-4.67-1.76-6.59-6.49-6.55-15.16.15-30.33.06-45.5.06h-6.06v-5.78c0-15.67-.13-31.33.08-47,.06-4.23-1.56-5.6-5.52-5.57-15.33.14-30.66.14-46,.19V76l105.49.15c18.83,0,37.65,0,57.18,0v56.89h61.61V191c.25.26.51.52.77.77H909v51.85h56.69V301h54v59.93H1082v5.61c0,13.83.11,27.66-.07,41.49,0,3.92,1.25,5.24,5.19,5.19,14.49-.18,29-.07,43.49-.07h5.94V470.1H1198V476c0,16.66.09,33.32-.07,50,0,3.9,1,5,5.14,5,16.48-.29,33-.12,50.11-.12V470h58.9V413.45h116V530h-62.55V639.6h-53.8v58.34h53.67v60.43h63v6q0,22,0,44c0,5.13,1.85,6.56,6.76,5.6A36.31,36.31,0,0,1,1442,813q44.73-.09,89.47,0h6.12v6.11q0,78,0,156c0,2,.27,3.95.41,5.93ZM913.23,469.18l0,.5h51.62v-.5Z" transform="translate(-628 -74.99)"/><path class="cls-3" d="M853.05,191.72c-.26-.25-.52-.51-.77-.77C852.53,191.21,852.79,191.47,853.05,191.72Z" transform="translate(-628 -74.99)"/><path class="cls-4" d="M913.23,469.18h51.58v.5H913.19Z" transform="translate(-628 -74.99)"/></svg>